<svg id="Layer_1" data-name="Layer 1" xmlns="http://www.w3.org/2000/svg" viewBox="0 0 813.08 463.48"><defs><style>.cls-1{fill:#1ea6c6;}.cls-2{fill:#f7cf52;}.cls-3{fill:gray;opacity:0.3;isolation:isolate;}.cls-4{fill:#fff;stroke:#fff;stroke-miterlimit:10;stroke-width:10px;}</style></defs><title>PFF_Logo_wt</title><path class="cls-1" d="M118.41,96.4C133.42,64,208.41-5,240.7,6.77a189.28,189.28,0,0,1,60.6,29S284.93,60.91,285.59,86A12,12,0,0,0,296.4,97.49c.42,0,.85.07,1.27.07a12.09,12.09,0,0,0,10.81-6.74c4.38-8.78,15.91-19.42,45,1.77h0q3.25,5.42,6.14,11.07a76.66,76.66,0,0,1-23.77.6,15.09,15.09,0,0,0-10.69,2.67,63.3,63.3,0,0,0-7.36,6.53c-13.89,14-16.19,43-16.19,43a115.56,115.56,0,0,0,1,20.16,29.69,29.69,0,0,0,33.65,25.64l.72-.1a20.37,20.37,0,0,1,23.33,19c.61,10.79,2.91,23,9,33.34h0a190.3,190.3,0,0,1-179.07,125.9c-12.64,0,9.73-1.23-2.22-3.58h.4s12.86-5,26.9-19.59l29.27-31.37c8.54-9.38,22.95-28.12,22.95-28.12a130.28,130.28,0,0,1-21-11.39c-2.87-1.91-13.63,3.77-16.48,1.42-2.26-1.87,3.36-11.69,1.29-13.82-7.34-7.54-13-16.68-13.36-27.13-16.59-10.06-36.14-23.06-48.73-35.16a29.71,29.71,0,0,0-23.76-8,231.31,231.31,0,0,0-42.8,8.56c2.7-26.79-43.7-50.72-31.7-71.72,6.5-11.39,17.42-11.6,26.05-9.41a18.14,18.14,0,0,0,18.54-6.27c10.56-13,33.63-25.24,50.49-33a19,19,0,0,0,7.36-28.71L160.35,48M198,61.49l23-30S195,38.49,198,61.49Z" transform="translate(0.09 43.14)"/><path class="cls-1" d="M31.08,86s78.6-129,240-129c0,0-105.23,37.18-145.58,125.8S31.08,86,31.08,86Z" transform="translate(0.09 43.14)"/><path class="cls-2" d="M353.51,92.58v0c-29.11-21.2-40.64-10.56-45-1.77a12.08,12.08,0,0,1-10.81,6.73c-.42,0-.85,0-1.27-.07A12,12,0,0,1,285.59,86C284.93,60.91,301.3,35.8,301.3,35.8A191.12,191.12,0,0,1,353.51,92.58Z" transform="translate(0.09 43.14)"/><path class="cls-2" d="M380.45,190.23a189.83,189.83,0,0,1-11.15,64.32h0c-6.07-10.32-8.37-22.55-9-33.34A20.37,20.37,0,0,0,337,202.16l-.72.1a29.69,29.69,0,0,1-33.65-25.64,115.56,115.56,0,0,1-1-20.16s2.3-29,16.19-43a63.3,63.3,0,0,1,7.36-6.53,15.09,15.09,0,0,1,10.69-2.67,76.66,76.66,0,0,0,23.77-.6A189.32,189.32,0,0,1,380.45,190.23Z" transform="translate(0.09 43.14)"/><path class="cls-2" d="M221,31.5l-23,30C196.31,48.71,187.16,37,180.61,29.17c2.18-1.67,5.38-4,10.94-7.63C214.17,25.36,221,31.5,221,31.5Z" transform="translate(0.09 43.14)"/><path class="cls-2" d="M173.42,63.15a19,19,0,0,1-7.36,28.7c-16.86,7.72-39.93,19.93-50.49,33A18.14,18.14,0,0,1,97,131.08c-8.63-2.19-19.55-2-26,9.41-12,21,34.4,44.92,31.7,71.71l-.06-.23a21.59,21.59,0,0,0-12.49-14.68c-16.25-7-30.88-17.95-40.15-34.8C29.73,125.67,44.12,81.7,58.27,53.22A190.17,190.17,0,0,1,119.6,13.55a228.89,228.89,0,0,1,33,26.3,250.41,250.41,0,0,0-29.87,48.7c7.45-14,32.89-38.77,36.71-41.85A176.13,176.13,0,0,1,173.42,63.15Z" transform="translate(0.09 43.14)"/><path class="cls-1" d="M351.34,291.32s-78.6,129-240,129c0,0,105.23-37.19,145.58-125.81S351.34,291.32,351.34,291.32Z" transform="translate(0.09 43.14)"/><path class="cls-1" d="M257.64,293c-35.84,41.19-77.24,69.18-121,79.82A190.25,190.25,0,0,1,58.27,53.23C44.12,81.71,29.73,125.68,50,162.49c9.27,16.86,23.9,27.78,40.15,34.8A21.63,21.63,0,0,1,102.62,212l.06.23c1.91,7.94,3.42,19.8,1.63,35.19a45.14,45.14,0,0,0,19.11,42.15L142,302.5s105.29-36,115.66-9.53" transform="translate(0.09 43.14)"/><path class="cls-2" d="M149,369.3c-12.3-26.59-7-66.81-7-66.81l-18.56-12.95a45.14,45.14,0,0,1-19.11-42.15c1.79-15.39.28-27.25-1.63-35.19a231.19,231.19,0,0,1,42.8-8.55,29.71,29.71,0,0,1,23.76,8c12.59,12.1,32.14,25.1,48.73,35.16a34.23,34.23,0,0,1,8.76,50.92c-7.41,9.05-15.93,18.74-24.47,28.12l-29.58,31.37c-1.46,1.53-2.83,3.24-4.11,4.55A193.28,193.28,0,0,1,149,369.3" transform="translate(0.09 43.14)"/><path class="cls-3" d="M183.79-29.84C221-43,265.43-43.53,271.09-43,174.14-34.28,34.5,91,34.5,190.23A190.18,190.18,0,0,0,136.61,358.85c37.25-5.49,78.38-31.66,121-65.88,0,0-49.06,61.72-121,79.82C57.65,349.65,0,276.67,0,190.23-3.86,77.24,114.43-10.19,183.79-29.84Z" transform="translate(0.09 43.14)"/><path class="cls-4" d="M475.28,104.53q35.16,0,51.7,13.36t11.88,39.85q-2.55,14.44-9.53,24.68A55,55,0,0,1,511.47,199a81.06,81.06,0,0,1-25.35,9.28,164.67,164.67,0,0,1-32.05,2.89H435.53l-10.92,61.88H401.26l29-164.46a142.27,142.27,0,0,1,22.6-3.25Q465.16,104.53,475.28,104.53ZM473.6,125q-14.93,0-23,.73l-11.55,65.49h17.58a140.32,140.32,0,0,0,21.94-1.57,56.85,56.85,0,0,0,17.19-5.29,33.81,33.81,0,0,0,12-10.24q4.76-6.5,6.54-16.61,1.7-9.63-.93-15.89a21.76,21.76,0,0,0-8.35-10,36.91,36.91,0,0,0-13.9-5.18A100.24,100.24,0,0,0,473.6,125Z" transform="translate(0.09 43.14)"/><path class="cls-4" d="M547.65,273.08l29.43-166.87H677.73l-3.53,20H596.91L588,176.52h68.62l-3.48,19.75H584.55L571,273.08Z" transform="translate(0.09 43.14)"/><path class="cls-4" d="M677,273.08l29.43-166.87H807l-3.53,20H726.21l-8.87,50.32H786l-3.48,19.75H713.85l-13.54,76.81Z" transform="translate(0.09 43.14)"/></svg>