<?xml version="1.0" encoding="utf-8"?>
<!-- Generator: Adobe Illustrator 14.0.0, SVG Export Plug-In . SVG Version: 6.00 Build 43363)  -->
<!DOCTYPE svg PUBLIC "-//W3C//DTD SVG 1.1//EN" "http://www.w3.org/Graphics/SVG/1.1/DTD/svg11.dtd">
<svg version="1.1" id="Layer_1" xmlns="http://www.w3.org/2000/svg" xmlns:xlink="http://www.w3.org/1999/xlink" x="0px" y="0px"
	 width="612px" height="792px" viewBox="0 0 612 792" enable-background="new 0 0 612 792" xml:space="preserve">
<g>
	<polygon fill-rule="evenodd" clip-rule="evenodd" fill="#FFFFFF" points="209,300 401.756,300 401.756,492.756 209,492.756 
		209,300 	"/>
	<path fill-rule="evenodd" clip-rule="evenodd" d="M349.908,314.831c6.106,0,12.978,6.565,12.978,13.13
		c0,3.969-5.191,10.993-11.146,10.993c-4.581,0-2.138-6.26-10.688-8.397c-1.832-0.763-2.596-1.985-2.596-3.664
		C338.457,320.021,345.48,314.831,349.908,314.831L349.908,314.831z"/>
	<path fill-rule="evenodd" clip-rule="evenodd" d="M293.943,363.558c0-5.802,5.344-12.52,11.298-12.52
		c3.359,0,7.329,3.053,7.329,9.619c0,0.61-7.023,12.214-11.757,12.214C296.539,372.871,293.943,369.054,293.943,363.558
		L293.943,363.558z"/>
	<path fill-rule="evenodd" clip-rule="evenodd" d="M326.933,364.038l0.152-0.458c1.526-5.497,4.733-8.55,8.245-8.55
		c4.58,0,9.618,5.802,9.618,12.978c0,5.649-3.512,9.771-7.786,9.771c-3.207,0-4.733-1.985-6.107-5.802
		C329.528,367.855,329.375,367.549,326.933,364.038L326.933,364.038z"/>
	<path fill-rule="evenodd" clip-rule="evenodd" d="M308.821,382.295c0-1.832,1.374-2.748,3.512-2.748
		c10.382,0,12.672,2.595,12.672,4.275c0,1.527-0.61,1.68-4.122,2.291c-3.664,0.61-3.206,2.595-4.58,2.595
		c-1.375,0-0.458-2.291-3.665-3.512C309.737,384.127,308.821,383.517,308.821,382.295L308.821,382.295z"/>
	<path fill-rule="evenodd" clip-rule="evenodd" d="M358.836,354.918c0,21.833-10.534,31.91-26.718,31.91
		c-6.26,0-3.054,5.954-9.466,5.954c-2.596,0-4.123-2.748-7.176-2.748c-1.68,0-3.512,0.916-5.497,0.916
		c-6.412,0-5.038-7.023-7.176-7.939c-9.008-3.665-9.161-3.665-10.84-4.733c-6.718-4.581-9.619-10.84-9.619-20.306
		c0-9.466,3.664-21.68,9.619-27.024c1.832,1.222,2.901,1.833,3.969,1.833c2.291,0,3.054-3.207,8.245-5.039
		c6.413-2.29,6.413-2.29,6.413-5.649c0-8.855-5.191-13.588-10.688-13.588c-7.176,0-14.199,5.955-14.199,11.756
		c0,2.901,1.679,5.802,3.97,8.245c-12.52,7.634-19.848,19.543-19.848,34.047c0,4.886,0.763,6.566,0.763,10.077
		c0,4.122-1.527,6.565-1.527,10.535c0,1.985,0.796,5.939,2.138,8.245c-11.909-8.855-18.474-20.306-18.474-33.589
		c0-13.13,6.26-23.665,17.1-31.299l0.763-0.611c-15.115,6.26-25.192,21.833-25.192,41.528c0,10.23,3.054,16.337,3.054,19.391
		c0,1.221-0.458,3.969-0.458,7.481c0,6.26,4.886,17.863,9.161,23.359c3.359,4.275,8.55,6.719,14.657,6.719
		c4.733,0,7.939-1.527,7.939-4.123c0-1.832-2.443-6.107-2.596-15.725l8.397,16.184c7.939,15.113,14.046,19.848,27.33,19.848
		c5.648,0,9.16-1.68,9.16-4.58c0-2.291-4.58-7.939-4.58-23.818c0-7.176,1.68-10.992,5.649-10.992c2.9,0,4.274,2.441,4.274,7.938
		c0,8.246-1.984,17.254-1.984,19.85c0,3.357,2.442,5.344,7.328,5.344c8.397,0,16.031-5.191,20.153-12.826
		c6.107-11.297,10.383-33.283,10.383-44.123C363.265,368.506,361.127,359.346,358.836,354.918L358.836,354.918L358.836,354.918z
		 M316.603,397.465c-3.664,0-7.176-2.291-7.787-5.039c5.191,1.222,9.313,1.833,14.047,1.833
		C321.641,396.243,319.656,397.465,316.603,397.465L316.603,397.465z"/>
	<path fill-rule="evenodd" clip-rule="evenodd" d="M361.26,428.256c-2.275,0-4.12,1.789-4.12,3.973c0,2.23,1.845,4.02,4.12,4.02
		c2.265,0,4.099-1.789,4.099-4.02C365.358,430.045,363.524,428.256,361.26,428.256L361.26,428.256L361.26,428.256z M361.26,435.467
		c-1.856,0-3.34-1.414-3.34-3.238c0-1.766,1.483-3.191,3.34-3.191c1.834,0,3.317,1.426,3.317,3.191
		C364.577,434.053,363.094,435.467,361.26,435.467L361.26,435.467z"/>
	<path fill-rule="evenodd" clip-rule="evenodd" d="M363.367,431.188c0-0.373-0.17-0.77-0.509-0.963
		c-0.352-0.191-0.736-0.215-1.121-0.215h-2.004v4.473h0.68v-2.061h0.804l1.313,2.061h0.78l-1.393-2.061
		C362.733,432.398,363.367,432.07,363.367,431.188L363.367,431.188L363.367,431.188z M361.16,431.867h-0.747v-1.348h1.188
		c0.577,0,1.087,0.08,1.087,0.656C362.688,431.98,361.806,431.867,361.16,431.867L361.16,431.867z"/>
	<path fill-rule="evenodd" clip-rule="evenodd" d="M338.306,482.877c2.934,0,3.816-0.764,3.816-3.053v-21.682
		c0-2.137-1.221-2.748-3.969-2.748v-1.068h25.497v8.092h-1.069c0-4.275-2.596-6.107-7.022-6.107h-4.275v11.604h1.984
		c3.359,0,4.122-2.137,4.275-5.801h1.068v13.436h-1.068c0-3.664-1.374-5.803-4.275-5.803h-1.984v9.924
		c0,2.596,0.764,3.207,3.816,3.207v1.068h-16.794V482.877L338.306,482.877z"/>
	<path fill-rule="evenodd" clip-rule="evenodd" d="M268.118,464.252l-7.18,20h-2.443l-7.634-22.596
		c-1.985-6.26-2.654-6.24-4.58-6.26v-1.07h14.352v1.07c-2.425,0.037-2.465,1.869-1.985,3.512l4.581,13.893l3.974-11.145
		c-1.985-6.26-2.653-6.24-4.58-6.26v-1.07h14.352v1.07c-2.425,0.037-2.465,1.869-1.985,3.512l4.581,13.893l5.191-14.352
		c0.542-2.078,0-2.9-1.68-3.053v-1.07h7.176v1.07c-1.832,0-2.901,0.762-3.97,3.816l-9.008,25.039h-2.443L268.118,464.252
		L268.118,464.252z"/>
	<path fill-rule="evenodd" clip-rule="evenodd" d="M314.391,464.252l-7.181,20h-2.442l-7.634-22.596
		c-1.985-6.26-2.654-6.24-4.58-6.26v-1.07h14.352v1.07c-2.425,0.037-2.465,1.869-1.985,3.512l4.581,13.893l3.974-11.145
		c-1.984-6.26-2.653-6.24-4.58-6.26v-1.07h14.352v1.07c-2.425,0.037-2.466,1.869-1.985,3.512l4.581,13.893l5.19-14.352
		c0.543-2.078,0-2.9-1.679-3.053v-1.07h7.176v1.07c-1.833,0-2.901,0.762-3.97,3.816l-9.009,25.039h-2.442L314.391,464.252
		L314.391,464.252z"/>
</g>
</svg>
